<svg width="124" height="41" viewBox="0 0 124 41" fill="none" xmlns="http://www.w3.org/2000/svg">
<path d="M35.6142 24.8726L20.0192 15.275L4.4242 24.8725C3.83545 25.2337 3.06546 25.0512 2.70546 24.4625C2.34296 23.875 2.52671 23.105 3.11546 22.7437L19.3654 12.7438C19.7667 12.4963 20.2742 12.4963 20.6754 12.7438L36.9254 22.7438C37.5142 23.1063 37.6967 23.8751 37.3354 24.4626C36.9704 25.0538 36.1979 25.2326 35.6142 24.8726Z" fill="#FD650B"/>
<path d="M23.1455 27.5575L16.8955 27.5575C16.5505 27.5575 16.2705 27.8375 16.2705 28.1825L16.2705 37.5575L7.52046 37.5575L7.52048 25.1688L20.0205 17.4775L32.5205 25.17L32.5205 37.5575L23.7705 37.5575L23.7705 28.1825C23.7705 27.8375 23.4905 27.5575 23.1455 27.5575ZM35.0205 2.5575L35.0205 10.345C35.0205 10.7 34.5918 10.8775 34.3405 10.6262L31.7505 8.03624L27.3755 12.4112C26.868 12.92 26.0818 13.0138 25.4668 12.6462L20.0305 9.38497L2.52048 20.1612L2.52049 16.4924L19.2017 6.22747C19.698 5.92122 20.323 5.91747 20.8255 6.21873L26.0292 9.34123L29.5418 5.82874L26.9517 3.23873C26.6993 2.98623 26.878 2.55748 27.233 2.55748L35.0205 2.5575Z" fill="#FD650B"/>
<path d="M60.4023 29.2715C60.5521 29.4212 60.6888 29.5319 60.8125 29.6035C60.9362 29.6686 61.0338 29.7044 61.1055 29.711C61.1771 29.7175 61.278 29.7207 61.4082 29.7207C61.5449 29.7207 61.7305 29.6589 61.9648 29.5352L62.2773 30.2383C61.8411 30.7787 61.304 31.1595 60.666 31.3809C60.3991 31.472 60.1842 31.5176 60.0215 31.5176C59.403 31.5176 58.8822 31.3613 58.459 31.0488C58.0358 30.7363 57.6712 30.375 57.3652 29.9649C57.0592 29.5547 56.7695 29.0859 56.4961 28.5586C55.9883 27.5951 55.5977 26.6152 55.3242 25.6192C54.7383 25.6973 54.097 25.7363 53.4004 25.7363L53.4004 27.8848C53.4004 28.4121 53.4394 29.2552 53.5176 30.4141L53.5566 31C53.0032 31.1693 52.3424 31.2539 51.5742 31.2539C50.8125 31.2539 50.3275 31.1693 50.1191 31C50.3079 29.6263 50.4023 28.5781 50.4023 27.8555L50.4024 20.0234C50.4024 19.444 50.3503 19.0729 50.2461 18.9102C50.1419 18.7474 50.0736 18.6432 50.041 18.5977C50.0085 18.5456 49.9499 18.4967 49.8652 18.4512C49.7871 18.3991 49.7318 18.3633 49.6992 18.3438C49.6276 18.3112 49.5137 18.2689 49.3574 18.2168C49.2598 17.9629 49.2109 17.7122 49.2109 17.4648C49.2109 17.2109 49.2142 17.0547 49.2207 16.9961C50.9655 16.7292 52.8926 16.5957 55.002 16.5957L55.5586 16.5957C56.9453 16.6218 58.1302 16.9636 59.1133 17.6211C59.5951 17.9466 59.9792 18.3698 60.2656 18.8906C60.5521 19.4115 60.6953 20.0007 60.6953 20.6582C60.6953 21.752 60.4316 22.6862 59.9043 23.461C59.3835 24.2292 58.5208 24.8086 57.3164 25.1992C57.8242 25.8828 58.2506 26.4688 58.5957 26.957C58.9408 27.4453 59.2207 27.8327 59.4355 28.1192C59.6504 28.4056 59.8262 28.6302 59.9629 28.793C60.1061 28.9557 60.2526 29.1153 60.4023 29.2715ZM57.8047 20.6777C57.8047 18.959 56.7826 18.0996 54.7383 18.0996C54.3542 18.0996 53.9082 18.1257 53.4004 18.1777L53.4004 24.2227C55.7051 24.125 57.082 23.513 57.5313 22.3867C57.7135 21.9115 57.8047 21.3418 57.8047 20.6777ZM66.75 26.7813C66.9453 27.7448 67.362 28.5228 68 29.1153C68.638 29.7077 69.3835 30.0039 70.2363 30.0039C71.0892 30.0039 71.9486 29.6361 72.8144 28.9004C73.14 29.1153 73.3385 29.3692 73.4101 29.6621C72.8112 30.3588 71.9258 30.8568 70.7539 31.1563C70.2786 31.28 69.7285 31.3418 69.1035 31.3418C68.485 31.3418 67.8437 31.2279 67.1797 31C66.5156 30.7787 65.9199 30.4532 65.3926 30.0235C64.8717 29.5938 64.4583 29.0306 64.1523 28.334C63.8464 27.6309 63.6934 26.8529 63.6934 26C63.6934 25.1472 63.8496 24.3757 64.1621 23.6856C64.4746 22.989 64.888 22.4193 65.4023 21.9766C66.4766 21.0456 67.707 20.5801 69.0938 20.5801C70.3112 20.5801 71.3659 20.9089 72.2578 21.5664C72.6875 21.892 73.0293 22.3151 73.2832 22.836C73.5436 23.3503 73.6738 23.933 73.6738 24.584C73.6738 25.6973 73.306 26.2832 72.5703 26.3418L66.75 26.7813ZM71.0469 24.291C71.0469 23.5163 70.832 22.9108 70.4023 22.4746C69.9727 22.0384 69.4095 21.8203 68.7129 21.8203C68.0163 21.8203 67.4889 22.1491 67.1309 22.8067C66.7728 23.4577 66.5938 24.3627 66.5937 25.5215C68.2148 25.3457 69.6797 25.1602 70.9883 24.9649C71.0273 24.7305 71.0469 24.5059 71.0469 24.291ZM76.0859 18.5391C75.9753 17.9076 75.5619 17.5495 74.8457 17.4649C74.8001 17.1459 74.7774 16.9668 74.7774 16.9278C74.7774 16.8822 74.7806 16.8334 74.7871 16.7813C76.0176 16.2995 77.2643 16.0586 78.5274 16.0586C78.586 16.0586 78.6478 16.0586 78.7129 16.0586C78.8496 16.2344 78.9408 16.6446 78.9863 17.2891C79.0319 17.9271 79.0547 19.418 79.0547 21.7618C79.0547 24.099 79.0189 27.1784 78.9473 31C78.5176 31.1237 78.0032 31.1856 77.4043 31.1856C76.8053 31.1856 76.3398 31.1172 76.0078 30.9805C76.125 30.1081 76.1836 28.4447 76.1836 25.9903C76.1836 23.5358 76.151 21.0521 76.0859 18.5391ZM90.627 25.4825L90.5684 28.7637C90.5684 28.7963 90.5684 28.8288 90.5684 28.8614C90.5684 29.2195 90.7376 29.3985 91.0762 29.3985C91.3366 29.3985 91.6133 29.3139 91.9062 29.1446C91.9974 29.2227 92.082 29.3334 92.1601 29.4766C92.2448 29.6133 92.2936 29.7208 92.3066 29.7989C91.4993 30.8275 90.6595 31.3419 89.7871 31.3419C88.9212 31.3419 88.3157 30.9154 87.9707 30.0626C87.3717 30.4792 86.7598 30.795 86.1348 31.0098C85.5163 31.2312 84.9824 31.3418 84.5332 31.3418C84.0905 31.3418 83.6771 31.293 83.293 31.1954C82.9154 31.0977 82.5638 30.9415 82.2383 30.7266C81.5351 30.2709 81.1836 29.5189 81.1836 28.4707C81.1836 27.9109 81.3366 27.4226 81.6426 27.0059C81.9551 26.5827 82.3783 26.2507 82.9121 26.0098C83.9342 25.5476 85.1549 25.2969 86.5742 25.2579L87.707 25.2188C87.7526 24.6915 87.7754 24.2748 87.7754 23.9688C87.7754 23.2787 87.6419 22.7579 87.375 22.4063C87.1146 22.0547 86.6263 21.879 85.9102 21.879C85.4805 21.879 85.1452 22.0287 84.9043 22.3282C84.6699 22.6277 84.5527 23.0704 84.5527 23.6563C84.5527 23.7344 84.4421 23.8288 84.2207 23.9395C83.8496 24.1153 83.4785 24.2032 83.1074 24.2032C82.7428 24.2032 82.4499 24.099 82.2285 23.8907C82.0137 23.6823 81.9063 23.3894 81.9063 23.0118C81.9063 22.6342 82.043 22.2793 82.3164 21.9473C82.5898 21.6153 82.9544 21.3581 83.4102 21.1758C84.3151 20.8178 85.347 20.6387 86.5059 20.6387C87.7168 20.6387 88.6022 20.8308 89.1621 21.2149C89.6699 21.5534 90.0313 22.0385 90.2461 22.67C90.5 23.4057 90.627 24.3432 90.627 25.4825ZM87.707 29.0372C87.6224 28.5619 87.5801 28.1517 87.5801 27.8067C87.5801 27.4551 87.5898 26.9669 87.6094 26.3419L86.252 26.4004C85.5553 26.4004 85.0182 26.5697 84.6406 26.9083C84.263 27.2468 84.0742 27.67 84.0742 28.1778C84.0742 28.6856 84.1849 29.0502 84.4062 29.2715C84.6276 29.4929 85.0736 29.6036 85.7441 29.6036C86.4212 29.6036 87.0755 29.4148 87.707 29.0372ZM94.582 27.8946C94.7318 27.8686 94.9466 27.8555 95.2266 27.8555C95.513 27.8555 95.8906 27.9695 96.3594 28.1973C96.3529 28.2494 96.3496 28.3471 96.3496 28.4903C96.3496 28.6335 96.3822 28.8093 96.4473 29.0176C96.5189 29.226 96.6263 29.418 96.7695 29.5938C97.082 29.9844 97.5963 30.1798 98.3125 30.1798C99.0286 30.1798 99.4974 29.9389 99.7187 29.4571C99.9075 29.0144 99.875 28.5554 99.6211 28.0802C99.4323 27.7286 98.9277 27.3933 98.1074 27.0743C97.9707 27.0222 97.7819 26.9506 97.541 26.8594C95.3796 26.0847 94.2858 24.9649 94.2598 23.5001C94.2598 22.836 94.4453 22.2761 94.8164 21.8204C95.5195 20.9675 96.7077 20.5411 98.3809 20.5411C99.4811 20.5411 100.409 20.769 101.164 21.2247C101.926 21.6804 102.307 22.2403 102.307 22.9044C102.307 23.6466 101.945 24.0177 101.223 24.0177C100.708 24.0177 100.347 23.9623 100.139 23.8516C99.9303 23.7344 99.8262 23.6693 99.8262 23.6563C99.8262 23.6173 99.8262 23.5815 99.8262 23.5489C99.8262 22.3315 99.2337 21.7227 98.0488 21.7227C97.6387 21.7227 97.3132 21.8301 97.0723 22.045C96.8379 22.2533 96.7207 22.5626 96.7207 22.9727C96.7207 23.3764 96.8639 23.7117 97.1504 23.9786C97.4434 24.2455 98.0033 24.545 98.8301 24.877C99.6634 25.2091 100.197 25.4337 100.432 25.5509C101.896 26.2605 102.629 27.1785 102.629 28.3048C102.629 29.2813 102.215 30.0333 101.389 30.5606C100.568 31.0815 99.4746 31.3419 98.1074 31.3419C97.2025 31.3419 96.5189 31.2637 96.0566 31.1075C95.5944 30.9512 95.2428 30.808 95.0019 30.6778C94.7676 30.5476 94.5723 30.4109 94.416 30.2676C94.2663 30.1244 94.1393 29.9747 94.0351 29.8184C93.7552 29.4083 93.6738 28.9916 93.791 28.5684C93.8887 28.2104 94.1523 27.9857 94.582 27.8946ZM110.109 29.0372C110.344 29.252 110.477 29.4734 110.51 29.7013C109.65 30.795 108.658 31.3419 107.531 31.3419C106.796 31.3419 106.275 31.0489 105.969 30.463C105.708 29.9486 105.549 29.0665 105.49 27.8165C105.438 25.8634 105.412 24.0437 105.412 22.3575C104.748 22.3315 104.341 22.2989 104.191 22.2598C104.159 22.2078 104.143 22.0157 104.143 21.6837C104.143 21.3516 104.159 21.1693 104.191 21.1368L105.432 21.0196C105.432 20.8829 105.451 20.2286 105.49 19.0567C105.816 18.7247 106.291 18.4708 106.916 18.295C107.548 18.1127 108.107 18.0216 108.596 18.0216C108.505 18.8484 108.43 19.8477 108.371 21.0196C108.586 21.0261 109.234 21.0652 110.314 21.1368C110.347 21.2475 110.363 21.4591 110.363 21.7716C110.363 22.0841 110.347 22.2729 110.314 22.338C109.715 22.4161 109.048 22.4649 108.313 22.4845C108.286 23.2592 108.273 24.239 108.273 25.4239C108.273 26.6023 108.299 27.7156 108.352 28.7638C108.371 29.1674 108.573 29.3692 108.957 29.3692C109.348 29.3692 109.732 29.2586 110.109 29.0372ZM123.449 25.6876C123.449 26.5405 123.296 27.3413 122.99 28.0899C122.684 28.8386 122.251 29.4506 121.691 29.9259C120.565 30.8829 119.077 31.3614 117.229 31.3614C116.304 31.3614 115.451 31.1433 114.67 30.7071C113.889 30.2709 113.267 29.6622 112.805 28.881C112.342 28.0932 112.111 27.1557 112.111 26.0684C112.111 24.9747 112.391 23.9916 112.951 23.1192C114.051 21.4005 115.897 20.5411 118.488 20.5411C119.79 20.5411 120.933 20.9871 121.916 21.879C122.938 22.81 123.449 24.0795 123.449 25.6876ZM114.992 25.9708C114.992 27.0841 115.314 28.0574 115.959 28.8907C116.604 29.7241 117.359 30.1407 118.225 30.1407C119.826 30.1407 120.627 28.8354 120.627 26.2247C120.627 24.9291 120.331 23.8777 119.738 23.0704C119.146 22.2631 118.391 21.8595 117.473 21.8595C117.01 21.8595 116.61 21.9767 116.271 22.211C115.933 22.4454 115.676 22.7612 115.5 23.1583C115.161 23.92 114.992 24.8575 114.992 25.9708Z" fill="#FD650B"/>
</svg>
